<svg id="Layer_3" enable-background="new 0 0 64 64" height="512" viewBox="0 0 64 64" width="512" xmlns="http://www.w3.org/2000/svg"><path d="m63 1h-38v4h-4v4h-4v8h-2.438l-.613 2.338c-1.203.332-2.358.811-3.448 1.431l-2.09-1.22-4.863 4.861 1.221 2.09c-.619 1.089-1.099 2.244-1.431 3.448l-2.338.614v6.876l2.338.613c.332 1.204.812 2.359 1.431 3.448l-1.221 2.09 4.862 4.862 2.09-1.221c1.089.619 2.244 1.099 3.448 1.431l.614 2.339h2.438v12h38v-4h4v-4h4zm-46.896 48-.524-1.998-.587-.137c-1.401-.327-2.733-.88-3.96-1.644l-.512-.319-1.787 1.044-2.681-2.681 1.044-1.787-.319-.512c-.764-1.227-1.316-2.559-1.644-3.96l-.136-.586-1.998-.524v-3.791l1.998-.525.137-.586c.327-1.401.88-2.733 1.644-3.959l.319-.512-1.044-1.788 2.681-2.68 1.787 1.043.512-.318c1.229-.765 2.561-1.317 3.959-1.643l.588-.137.523-2h.896v4.051c-5.598.507-10 5.221-10 10.949s4.402 10.442 10 10.949v4.051zm-4.104-15c0 2.967 2.167 5.431 5 5.91v3.031c-4.493-.499-8-4.316-8-8.941 0-4.624 3.507-8.442 8-8.941v3.031c-2.833.479-5 2.943-5 5.91zm5-3.858v7.716c-1.721-.447-3-1.999-3-3.858 0-1.858 1.279-3.411 3-3.858zm2 30.858v-50h26v8h8v42zm28-48.586 4.586 4.586h-4.586zm10 44.586h-2v-39.414l-8.586-8.586h-23.414v-2h34zm4-4h-2v-48h-32v-2h34z"/><path d="m21 43h14v-14h-14zm2-12h10v10h-10z"/><path d="m37 33h14v2h-14z"/><path d="m37 29h14v2h-14z"/><path d="m49 37h2v2h-2z"/><path d="m37 37h10v2h-10z"/><path d="m37 21h14v2h-14z"/><path d="m37 17h6v2h-6z"/><path d="m37 13h6v2h-6z"/><path d="m41 25h10v2h-10z"/><path d="m37 25h2v2h-2z"/><path d="m37 41h14v2h-14z"/><path d="m37 59h14v-14h-14zm2-12h10v10h-10z"/><path d="m21 49h2v2h-2z"/><path d="m25 49h10v2h-10z"/><path d="m21 45h14v2h-14z"/><path d="m21 53h14v2h-14z"/><path d="m21 57h10v2h-10z"/><path d="m33 57h2v2h-2z"/><path d="m28 13c-3.859 0-7 3.14-7 7s3.141 7 7 7 7-3.14 7-7-3.141-7-7-7zm0 12c-2.757 0-5-2.243-5-5s2.243-5 5-5 5 2.243 5 5-2.243 5-5 5z"/></svg>