<svg id="Capa_1" enable-background="new 0 0 511.882 511.882" height="512" viewBox="0 0 511.882 511.882" width="512" xmlns="http://www.w3.org/2000/svg"><g><path d="m285.999 293.589c0-37.333-30.373-67.706-67.706-67.706s-67.705 30.373-67.705 67.706 30.372 67.705 67.705 67.705 67.706-30.372 67.706-67.705zm-105.411 0c0-20.791 16.914-37.706 37.705-37.706s37.706 16.915 37.706 37.706-16.915 37.705-37.706 37.705-37.705-16.914-37.705-37.705z"/><path d="m346.293 278.589c-8.284 0-15 6.716-15 15 0 62.309-50.691 113-113 113-8.284 0-15 6.716-15 15s6.716 15 15 15c78.851 0 143-64.149 143-143 0-8.284-6.716-15-15-15z"/><path d="m233.293 165.589c0-8.284-6.716-15-15-15-78.851 0-143 64.149-143 143 0 8.284 6.716 15 15 15s15-6.716 15-15c0-62.309 50.691-113 113-113 8.284 0 15-6.716 15-15z"/><circle cx="376.419" cy="90.287" r="15.005"/><circle cx="436.645" cy="90.287" r="15.005"/><path d="m406.531 0c-53.562 0-97.915 40.179-104.505 91.98-143.284-59.415-302.026 45.581-302.026 201.612 0 120.365 97.925 218.29 218.29 218.29 154.004 0 261.301-156.354 201.96-301.183h46.521c8.284 0 15-6.716 15-15v-30.17h15.11c8.284 0 15-6.716 15-15v-45.179c.001-58.09-47.259-105.35-105.35-105.35zm-188.241 481.882c-103.823 0-188.29-84.467-188.29-188.29 0-139.016 146.382-230.298 271.182-169.093v26.03c0 8.284 6.716 15 15 15h15.11v30.17c0 8.284 6.716 15 15 15h41.091c61.204 124.799-30.074 271.183-169.093 271.183zm263.592-346.353h-15.11c-8.284 0-15 6.716-15 15v30.17h-30.24v-22.643c0-8.284-6.716-15-15-15s-15 6.716-15 15v22.643h-30.239v-30.17c0-8.284-6.716-15-15-15h-15.11c0-10.818 0-19.396 0-30.179 0-41.549 33.802-75.351 75.35-75.351 41.549 0 75.351 33.802 75.351 75.351v30.179z"/></g></svg>