<?xml version="1.0" encoding="iso-8859-1"?>
<!-- Generator: Adobe Illustrator 19.0.0, SVG Export Plug-In . SVG Version: 6.00 Build 0)  -->
<svg version="1.1" id="Layer_1" xmlns="http://www.w3.org/2000/svg" xmlns:xlink="http://www.w3.org/1999/xlink" x="0px" y="0px"
	 viewBox="0 0 512 512" style="enable-background:new 0 0 512 512;" xml:space="preserve">
<g>
	<g>
		<path d="M462.367,86.204H49.633c-15.845,0-28.735,12.89-28.735,28.735v250.776h15.674V114.939c0-7.202,5.859-13.061,13.061-13.061
			h412.735c7.202,0,13.061,5.859,13.061,13.061v250.776h15.673V114.939C491.102,99.094,478.212,86.204,462.367,86.204z"/>
	</g>
</g>
<g>
	<g>
		<path d="M441.469,122.776H70.531c-10.082,0-18.286,8.203-18.286,18.286v216.816h407.51V141.061
			C459.755,130.979,451.552,122.776,441.469,122.776z M444.082,342.204H67.918V141.061c0-1.44,1.172-2.612,2.612-2.612h370.939
			c1.44,0,2.612,1.172,2.612,2.612V342.204z"/>
	</g>
</g>
<g>
	<g>
		<path d="M0,378.776v47.02h512v-47.02H0z M496.327,410.122H15.673v-15.673H197.66l6.617,9.927h103.445l6.617-9.927h181.987V410.122
			z"/>
	</g>
</g>
<g>
	<g>
		<circle cx="256" cy="112.327" r="5.224"/>
	</g>
</g>
<g>
</g>
<g>
</g>
<g>
</g>
<g>
</g>
<g>
</g>
<g>
</g>
<g>
</g>
<g>
</g>
<g>
</g>
<g>
</g>
<g>
</g>
<g>
</g>
<g>
</g>
<g>
</g>
<g>
</g>
</svg>
