<svg id="Layer_1" data-name="Layer 1" xmlns="http://www.w3.org/2000/svg" viewBox="0 0 184.13 84.97"><defs><style>.cls-1{fill:#fff;}.cls-1,.cls-10,.cls-2,.cls-8,.cls-9{stroke:#000;stroke-miterlimit:10;}.cls-1,.cls-2,.cls-8{stroke-width:2px;}.cls-2,.cls-9{fill:none;}.cls-3{font-size:21px;font-family:MyriadPro-Regular, Myriad Pro;}.cls-4{fill:#1200aa;}.cls-5{letter-spacing:-0.04em;}.cls-6{letter-spacing:-0.04em;}.cls-7{letter-spacing:0em;}.cls-10{stroke-width:0.56px;}</style></defs><title>logo</title><circle class="cls-1" cx="34.64" cy="11.02" r="10.02"/><circle class="cls-1" cx="12.14" cy="29.11" r="11.14"/><line class="cls-2" x1="35.63" y1="84.9" x2="35.63" y2="21.46"/><line class="cls-2" x1="12.13" y1="54.37" x2="12.14" y2="40.61"/><line class="cls-2" x1="11.96" y1="53.99" x2="35.39" y2="74.12"/><text class="cls-3" transform="translate(45.65 40.25)">S<tspan class="cls-4" x="10.35" y="0">O</tspan><tspan class="cls-5" x="24.82" y="0">L</tspan><tspan x="33.98" y="0">UCIONES</tspan></text><circle cx="63.1" cy="32.88" r="2.14"/><text class="cls-3" transform="translate(45.28 62.33)">TECNO<tspan class="cls-6" x="61.23" y="0">L</tspan><tspan class="cls-4" x="70.33" y="0">Ó</tspan><tspan x="84.8" y="0">GI</tspan><tspan class="cls-7" x="103.38" y="0">C</tspan><tspan x="115.65" y="0">AS</tspan></text><circle cx="123.35" cy="54.63" r="2.51"/><line class="cls-8" x1="63.45" y1="44.86" x2="63.45" y2="40.25"/><line class="cls-2" x1="64.5" y1="44.86" x2="39.48" y2="44.87"/><line class="cls-2" x1="63.5" y1="44.86" x2="39.73" y2="44.87"/><line class="cls-2" x1="62.5" y1="44.86" x2="40.48" y2="44.87"/><line class="cls-2" x1="64.5" y1="44.86" x2="39.38" y2="44.87"/><line class="cls-2" x1="64.5" y1="44.86" x2="39.48" y2="44.87"/><line class="cls-2" x1="64.19" y1="44.86" x2="40.48" y2="44.87"/><line class="cls-2" x1="64.5" y1="44.86" x2="39.48" y2="44.87"/><line class="cls-2" x1="63.5" y1="44.86" x2="39.48" y2="44.87"/><line class="cls-2" x1="52.5" y1="44.86" x2="40.48" y2="44.87"/><line class="cls-2" x1="63.45" y1="44.86" x2="39.98" y2="44.87"/><line class="cls-2" x1="40.43" y1="84.97" x2="40.43" y2="44.86"/><circle class="cls-9" cx="12.27" cy="30.74" r="4.23"/><circle class="cls-9" cx="34.81" cy="11.58" r="4.14"/><ellipse class="cls-10" cx="117.84" cy="32.84" rx="1.25" ry="1.85"/></svg>