<svg id="Layer_3" enable-background="new 0 0 64 64" height="512" viewBox="0 0 64 64" width="512" xmlns="http://www.w3.org/2000/svg"><g><path d="m16 10.905v-2c0-2.206-1.794-4-4-4s-4 1.794-4 4v2c0 2.206 1.794 4 4 4s4-1.794 4-4zm-2 0c0 1.103-.897 2-2 2s-2-.897-2-2v-2c0-1.103.897-2 2-2s2 .897 2 2z"/><path d="m56 10.905v-2c0-2.206-1.794-4-4-4s-4 1.794-4 4v2c0 2.206 1.794 4 4 4s4-1.794 4-4zm-2 0c0 1.103-.897 2-2 2s-2-.897-2-2v-2c0-1.103.897-2 2-2s2 .897 2 2z"/><path d="m16 50.905v-2c0-2.206-1.794-4-4-4s-4 1.794-4 4v2c0 2.206 1.794 4 4 4s4-1.794 4-4zm-2 0c0 1.103-.897 2-2 2s-2-.897-2-2v-2c0-1.103.897-2 2-2s2 .897 2 2z"/><path d="m52 40.905c-5.728 0-10.442 4.402-10.949 10h-8.051v-7.051c6.149-.511 11-5.67 11-11.949 0-.338-.023-.669-.051-1h5.235c.414 1.161 1.514 2 2.816 2 1.654 0 3-1.346 3-3s-1.346-3-3-3c-1.302 0-2.402.839-2.816 2h-5.579c-1.256-4.855-5.472-8.523-10.605-8.949v-7.051h8.051c.508 5.598 5.221 10 10.949 10 6.065 0 11-4.935 11-11s-4.935-11-11-11c-5.728 0-10.442 4.402-10.949 10h-18.102c-.508-5.598-5.221-10-10.949-10-6.065 0-11 4.935-11 11s4.935 11 11 11c5.728 0 10.442-4.402 10.949-10h8.051v7.051c-6.149.511-11 5.67-11 11.949 0 .338.023.669.051 1h-5.235c-.414-1.161-1.514-2-2.816-2-1.654 0-3 1.346-3 3s1.346 3 3 3c1.302 0 2.402-.839 2.816-2h5.579c1.256 4.855 5.472 8.523 10.605 8.949v7.051h-8.051c-.508-5.598-5.221-10-10.949-10-6.065 0-11 4.935-11 11s4.935 11 11 11c5.728 0 10.442-4.402 10.949-10h18.101c.508 5.598 5.221 10 10.949 10 6.065 0 11-4.935 11-11s-4.934-11-10.999-11zm0-12c.551 0 1 .448 1 1s-.449 1-1 1-1-.448-1-1 .449-1 1-1zm-4-8.949v-2.05c0-.552.449-1 1-1h6c.551 0 1 .448 1 1v2.05c-1.207.602-2.562.95-4 .95s-2.793-.348-4-.95zm4-17.051c4.962 0 9 4.037 9 9 0 2.656-1.164 5.04-3 6.689v-.689c0-1.654-1.346-3-3-3h-3-3c-1.654 0-3 1.346-3 3v.689c-1.836-1.649-3-4.033-3-6.689 0-4.963 4.038-9 9-9zm-44 17.051v-2.05c0-.552.449-1 1-1h6c.551 0 1 .448 1 1v2.05c-1.207.602-2.562.95-4 .95s-2.793-.348-4-.95zm10-1.362v-.689c0-1.654-1.346-3-3-3h-3-3c-1.654 0-3 1.346-3 3v.689c-1.836-1.649-3-4.033-3-6.689 0-4.963 4.038-9 9-9s9 4.037 9 9c0 2.657-1.164 5.041-3 6.689zm-6 16.311c-.551 0-1-.448-1-1s.449-1 1-1 1 .448 1 1-.449 1-1 1zm21 3.012c.51.013 1.013.062 1.505.155-.42.814-.92 1.588-1.505 2.309zm0-2v-3.012h2.951c-.083 1.134-.306 2.238-.661 3.297-.744-.171-1.51-.268-2.29-.285zm0-5.012v-3.012c.78-.017 1.546-.114 2.29-.285.355 1.058.578 2.162.661 3.297zm0-5.012v-2.465c.585.721 1.086 1.496 1.505 2.309-.492.095-.995.143-1.505.156zm-2 0c-.51-.013-1.013-.062-1.505-.155.42-.814.92-1.588 1.505-2.309zm0 2v3.012h-2.951c.083-1.134.306-2.238.661-3.297.744.172 1.51.269 2.29.285zm0 5.012v3.012c-.78.017-1.546.114-2.29.285-.355-1.058-.578-2.162-.661-3.297zm0 5.012v2.465c-.585-.721-1.086-1.496-1.505-2.309.492-.094.995-.143 1.505-.156zm5.434.752c.635.275 1.235.627 1.798 1.043-1.05.84-2.274 1.468-3.607 1.831.715-.894 1.315-1.859 1.809-2.874zm.759-1.851c.419-1.255.673-2.566.759-3.912h3.998c-.204 2.04-1.023 3.9-2.269 5.394-.769-.604-1.603-1.102-2.488-1.482zm.758-5.913c-.086-1.346-.34-2.658-.759-3.912.885-.38 1.719-.879 2.487-1.482 1.246 1.494 2.066 3.354 2.269 5.394zm-1.517-5.764c-.494-1.015-1.093-1.98-1.808-2.875 1.333.364 2.556.991 3.606 1.831-.563.417-1.163.769-1.798 1.044zm-8.868 0c-.635-.275-1.235-.627-1.798-1.043 1.05-.84 2.274-1.468 3.607-1.831-.715.894-1.315 1.86-1.809 2.874zm-.759 1.852c-.419 1.255-.673 2.566-.759 3.912h-3.998c.204-2.04 1.023-3.9 2.269-5.394.769.604 1.603 1.102 2.488 1.482zm-.758 5.912c.086 1.346.34 2.658.759 3.912-.885.38-1.719.878-2.487 1.482-1.246-1.494-2.066-3.354-2.269-5.394zm1.517 5.764c.494 1.015 1.093 1.98 1.808 2.875-1.333-.364-2.556-.991-3.606-1.831.563-.417 1.163-.768 1.798-1.044zm-19.566 21.287v-2.05c0-.552.449-1 1-1h6c.551 0 1 .448 1 1v2.05c-1.207.602-2.562.95-4 .95s-2.793-.348-4-.95zm10-1.362v-.689c0-1.654-1.346-3-3-3h-3-3c-1.654 0-3 1.346-3 3v.689c-1.836-1.649-3-4.033-3-6.689 0-4.963 4.038-9 9-9s9 4.037 9 9c0 2.657-1.164 5.041-3 6.689zm30 1.362v-2.05c0-.552.449-1 1-1h6c.551 0 1 .448 1 1v2.05c-1.207.602-2.562.95-4 .95s-2.793-.348-4-.95zm10-1.362v-.689c0-1.654-1.346-3-3-3h-3-3c-1.654 0-3 1.346-3 3v.689c-1.836-1.649-3-4.033-3-6.689 0-4.963 4.038-9 9-9s9 4.037 9 9c0 2.657-1.164 5.041-3 6.689z"/><path d="m56 50.905v-2c0-2.206-1.794-4-4-4s-4 1.794-4 4v2c0 2.206 1.794 4 4 4s4-1.794 4-4zm-2 0c0 1.103-.897 2-2 2s-2-.897-2-2v-2c0-1.103.897-2 2-2s2 .897 2 2z"/></g></svg>