<?xml version="1.0"?>
<svg xmlns="http://www.w3.org/2000/svg" viewBox="0 0 512 512" width="512" height="512"><g id="_30-technical" data-name="30-technical"><g id="linear_color" data-name="linear color"><circle cx="276" cy="188" r="12"/><circle cx="172" cy="188" r="12"/><path d="M208,244h16a12,12,0,0,0,3.2-23.568l7.533-15.066a12,12,0,0,0-21.466-10.732l-16,32A12,12,0,0,0,208,244Z"/><path d="M208,76h32a12,12,0,0,0,0-24H208a12,12,0,0,0,0,24Z"/><path d="M497.474,361.279,484.72,359.7l-2.754-6.649,7.9-10.134a12,12,0,0,0-.977-15.864l-28.817-28.817a12,12,0,0,0-15.864-.977l-10.134,7.9-6.649-2.754-1.578-12.754a12,12,0,0,0-11.91-10.526H373.188a12,12,0,0,0-11.909,10.526L359.7,302.408l-6.649,2.754-10.134-7.9a12,12,0,0,0-15.864.977l-28.817,28.817a12,12,0,0,0-.977,15.864l7.9,10.134-2.754,6.649-12.754,1.578a12,12,0,0,0-10.526,11.909v10.628L224,432.055l-69.728-61.008,25.176-7.553A12,12,0,0,0,188,352V323.588c12.5,5.364,25.1,8.412,36,8.412,20.515,0,47.039-10.792,67.572-27.493,18.293-14.879,30.808-33.4,36.654-53.728C350.612,244.045,364,210.936,364,192c0-8.432-2.462-15.149-7.317-19.968-5.184-5.143-11.717-7.042-18.928-7.718A43.8,43.8,0,0,0,348,136.114V80A76.087,76.087,0,0,0,272,4H176a76.087,76.087,0,0,0-76,76v56.114a43.8,43.8,0,0,0,10.245,28.2c-7.209.677-13.745,2.576-18.928,7.718C86.462,176.851,84,183.568,84,192c0,18.936,13.388,52.045,35.774,58.779,5.846,20.332,18.361,38.849,36.654,53.728,2.445,1.989,4.977,3.891,7.572,5.7v32.86L35.352,381.666A43.728,43.728,0,0,0,4,423.81V496a12,12,0,0,0,24,0V423.81a20.127,20.127,0,0,1,14.248-19.156l84.883-25.465L216.1,457.031a12,12,0,0,0,15.8,0L279.255,415.6a11.992,11.992,0,0,0,10.4,10.252l12.754,1.578,2.754,6.649-7.9,10.134a12,12,0,0,0,.977,15.864l28.817,28.817a12,12,0,0,0,15.864.977l10.134-7.9,6.649,2.754,1.578,12.754A12,12,0,0,0,373.188,508h40.751a12,12,0,0,0,11.91-10.526l1.578-12.754,6.649-2.754,10.134,7.9a12,12,0,0,0,15.864-.977l28.817-28.817a12,12,0,0,0,.977-15.864l-7.9-10.134,2.754-6.649,12.754-1.578A12,12,0,0,0,508,413.939V373.188A12,12,0,0,0,497.474,361.279ZM131.234,151.493a19.9,19.9,0,0,1-7.208-14.347,389.1,389.1,0,0,1,199.948,0,20.021,20.021,0,0,1-23.787,18.6c-27.057-5.152-51.623-7.728-76.187-7.728s-49.13,2.576-76.187,7.728A20.042,20.042,0,0,1,131.234,151.493ZM340,192c0,7.608-3.523,17.455-8,24.928V188.016c3.354.1,6.4.368,7.672,1.022A9.965,9.965,0,0,1,340,192ZM176,28h96a52.059,52.059,0,0,1,52,52v32.393a412.069,412.069,0,0,0-200,0V80A52.059,52.059,0,0,1,176,28ZM108.328,189.038c1.273-.654,4.318-.921,7.672-1.022v28.912c-4.477-7.473-8-17.32-8-24.928A9.965,9.965,0,0,1,108.328,189.038ZM140,224V179.922c9.529.953,19.211-2.275,28.482-3.4A12,12,0,1,0,172,176c-.019,0-.038,0-.057,0a344.918,344.918,0,0,1,104.114,0c-.019,0-.038,0-.057,0a12,12,0,1,0,3.518.526c9.241,1.121,19.009,4.349,28.482,3.4V224c0,55.421-58.879,84-84,84C185.967,305.3,139.65,271.285,140,224ZM484,403.333l-9.165,1.134a12,12,0,0,0-9.613,7.317l-8.1,19.567a12,12,0,0,0,1.624,11.97l5.679,7.283L450.6,464.42l-7.283-5.679a12,12,0,0,0-11.97-1.624l-19.567,8.1a12,12,0,0,0-7.317,9.613L403.333,484H383.8l-1.134-9.165a12,12,0,0,0-7.317-9.613l-19.567-8.1a12,12,0,0,0-11.97,1.624l-7.283,5.679L322.708,450.6l5.679-7.283a12,12,0,0,0,1.624-11.97l-8.105-19.567a12,12,0,0,0-9.613-7.317l-9.165-1.134V383.8l9.165-1.134a12,12,0,0,0,9.613-7.317l8.105-19.567a12,12,0,0,0-1.624-11.97l-5.679-7.283,13.816-13.816,7.283,5.679a12,12,0,0,0,11.97,1.624l19.567-8.105a12,12,0,0,0,7.317-9.613l1.134-9.165h19.538l1.134,9.165a12,12,0,0,0,7.317,9.613l19.567,8.105a12,12,0,0,0,11.97-1.624l7.283-5.679,13.816,13.816-5.679,7.283a12,12,0,0,0-1.624,11.97l8.1,19.567a12,12,0,0,0,9.613,7.317L484,383.8Z"/><path d="M393.564,344.631a48.934,48.934,0,1,0,34.6,14.332A48.613,48.613,0,0,0,393.564,344.631ZM411.2,411.2a24.934,24.934,0,1,1,0-35.261A24.961,24.961,0,0,1,411.2,411.2Z"/></g></g></svg>
